PathFileType	4	(X/Y/Z)	SUBJ32_2_walk_RCNL2025.trc
DataRate	CameraRate	NumFrames	NumMarkers	Units	OrigDataRate	OrigDataStartFrame	OrigNumFrames
100	100	12	25	mm	100	215	428
Frame#	Time	R_Shoulder			L_Shoulder			C7			J_Notch			R_Elbow			L_Elbow			R_Wrist			L_Wrist			R_Asis			L_Asis			Sacral			Thoracic			Sternum			R_Thigh_Lateral			R_Knee_Lateral			R_Shank_Lateral			R_Ankle_Lateral			R_Heel			R_Toe			L_Thigh_Lateral			L_Knee_Lateral			L_Shank_Lateral			L_Ankle_Lateral			L_Heel			L_Toe		
		X1	Y1	Z1	X2	Y2	Z2	X3	Y3	Z3	X4	Y4	Z4	X5	Y5	Z5	X6	Y6	Z6	X7	Y7	Z7	X8	Y8	Z8	X9	Y9	Z9	X10	Y10	Z10	X11	Y11	Z11	X12	Y12	Z12	X13	Y13	Z13	X14	Y14	Z14	X15	Y15	Z15	X16	Y16	Z16	X17	Y17	Z17	X18	Y18	Z18	X19	Y19	Z19	X20	Y20	Z20	X21	Y21	Z21	X22	Y22	Z22	X23	Y23	Z23	X24	Y24	Z24	X25	Y25	Z25
215	2.14000000	285.713593	1364.954834	-10.185028	288.456757	1349.221191	-388.863617	263.730316	1437.858398	-195.187073	375.204437	1322.898560	-194.291672	163.634628	1049.472534	90.964165	175.527130	1042.743530	-468.643494	179.530075	802.036652	122.110802	202.263824	784.923065	-471.538757	327.471191	896.663452	-64.372101	342.893707	894.524536	-315.095184	136.626968	943.190186	-198.243561	146.575073	1205.073730	-195.808853	434.900146	1099.908691	-180.970657	263.611359	540.665710	35.160389	271.928802	455.861084	0.352635	166.262634	347.416809	63.453552	1.876989	201.047241	-56.008606	-35.058186	233.114227	-112.086166	67.801674	88.490982	-82.446632	312.624969	550.079834	-405.311615	334.717590	461.533905	-357.236664	331.103058	237.423767	-373.697632	310.817566	54.679195	-282.649109	257.342010	46.567459	-240.167984	443.763367	38.506111	-241.656906
216	2.15000000	295.846008	1366.252808	-10.151736	299.083252	1351.311890	-388.922028	274.221924	1439.451294	-195.064133	385.496979	1324.384277	-194.281281	173.042740	1050.962891	90.505127	187.099136	1044.712158	-469.796722	188.229240	803.488098	121.435097	215.086693	787.089355	-473.039963	338.349518	898.548035	-64.847717	352.214111	895.647583	-315.872894	146.674622	944.692383	-197.941101	156.803833	1206.638306	-196.054230	445.087189	1101.441772	-181.604080	281.980499	542.712646	34.677578	291.718048	458.430603	-0.568353	187.653397	349.139587	63.215240	27.093235	197.239838	-54.908283	-11.482674	226.954941	-111.248322	98.864456	88.205200	-79.472359	317.076050	550.443848	-405.414856	337.532928	461.428986	-357.358490	332.076538	237.381241	-373.704498	310.823181	54.664719	-282.483307	257.364502	46.793983	-240.065567	443.781860	38.529579	-241.739517
217	2.16000000	305.850464	1367.414551	-10.054127	309.581543	1353.298096	-388.919952	284.588409	1440.923706	-194.871124	395.675446	1325.771851	-194.207550	182.365463	1052.282593	90.065331	198.557190	1046.559082	-470.859497	196.912857	804.775696	120.774456	227.737053	789.120300	-474.412735	349.238068	900.326721	-65.358818	361.459900	896.654297	-316.592468	156.655655	946.074402	-197.575439	166.940109	1208.068115	-196.233353	455.194366	1102.877808	-182.218872	300.044281	544.806824	34.213760	311.068024	460.974792	-1.576460	208.977051	350.244507	62.998142	52.980579	192.327957	-53.849167	12.853978	219.620560	-110.335472	130.533249	87.259140	-76.996277	321.440826	550.817078	-405.474487	340.222565	461.350616	-357.426147	332.958557	237.379913	-373.701416	310.808960	54.650143	-282.307983	257.357971	46.956444	-239.890686	443.793030	38.582230	-241.846909
218	2.17000000	315.747986	1368.425537	-9.898102	319.966827	1355.157715	-388.861908	294.843536	1442.259644	-194.614868	405.754272	1327.041870	-194.076843	191.615402	1053.421631	89.644974	209.911972	1048.265137	-471.833740	205.580742	805.887268	120.130196	240.215820	790.994049	-475.660355	360.117401	901.962646	-65.899551	370.639404	897.535645	-317.254852	166.578186	947.320679	-197.148300	176.994324	1209.349121	-196.344604	465.232269	1104.198120	-182.820221	317.813599	546.904236	33.793285	329.976532	463.431335	-2.628750	230.303513	350.659698	62.794632	79.557716	186.435074	-52.847324	38.007793	211.227051	-109.396774	162.699036	85.732849	-74.934296	325.760040	551.190735	-405.501038	342.833496	461.294128	-357.446228	333.774292	237.412338	-373.689697	310.775299	54.639229	-282.123322	257.323090	47.054928	-239.643875	443.794769	38.651218	-241.974396
219	2.18000000	325.559814	1369.272339	-9.688986	330.255188	1356.870361	-388.751648	305.001434	1443.443970	-194.301437	415.748291	1328.176270	-193.894928	200.806122	1054.371338	89.245354	221.174774	1049.813599	-472.722290	214.234039	806.812256	119.503864	252.526978	792.691620	-476.787994	370.965820	903.422424	-66.459373	379.760529	898.282776	-317.860382	176.450012	948.416992	-196.661911	186.977081	1210.469116	-196.386475	475.210999	1105.384277	-183.412094	335.298584	548.964355	33.429237	348.441528	465.742645	-3.690355	251.689224	350.368866	62.589813	106.840843	179.696732	-51.920692	64.019798	201.900070	-108.487526	195.294846	83.721596	-73.187172	330.073090	551.553528	-405.505096	345.411713	461.251862	-357.425537	334.551758	237.469086	-373.670135	310.725250	54.636730	-281.930328	257.264862	47.100037	-239.333145	443.786133	38.720184	-242.112228
220	2.19000000	335.306671	1369.943115	-9.431381	340.463043	1358.417847	-388.592346	315.076508	1444.463257	-193.935989	425.672485	1329.158691	-193.666824	209.951813	1055.124146	88.868843	232.357193	1051.190308	-473.528595	222.875267	807.541565	118.897289	264.677254	794.197205	-477.802658	381.763947	904.678101	-67.025536	388.830688	898.887390	-318.408936	186.278580	949.351074	-196.118790	196.898987	1211.417725	-196.357513	485.139954	1106.418945	-183.996964	352.503448	550.949341	33.124603	366.458221	467.856995	-4.734946	273.174713	349.394501	62.369984	134.838348	172.254211	-51.085850	90.913849	191.776627	-107.659714	228.285492	81.333504	-71.655838	334.416046	551.891663	-405.496094	348.001282	461.213776	-357.370850	335.320465	237.539215	-373.642944	310.663361	54.646637	-281.730072	257.191895	47.110504	-238.971832	443.768280	38.772293	-242.246796
221	2.20000000	345.008545	1370.427979	-9.129062	350.606964	1359.784790	-388.386200	325.083008	1445.305908	-193.522675	435.541748	1329.974365	-193.396606	219.066986	1055.674316	88.518768	243.470795	1052.383911	-474.256531	231.508339	808.068054	118.312698	276.675674	795.498718	-478.712845	392.497589	905.708252	-67.584969	397.857086	899.342163	-318.899933	196.071121	950.112488	-195.521698	206.770584	1212.186401	-196.256332	495.028107	1107.286255	-184.575684	369.421936	552.823669	32.874310	384.016998	469.729370	-5.744442	294.780823	347.788147	62.125904	163.548569	164.251770	-50.354603	118.696175	181.006577	-106.953873	261.655640	78.687172	-70.253937	338.820557	552.190247	-405.481232	350.643951	461.168365	-357.288849	336.110352	237.610916	-373.608246	310.594147	54.671093	-281.522827	257.114288	47.108898	-238.575714	443.744049	38.794441	-242.365234
222	2.21000000	354.684113	1370.718994	-8.784869	360.703156	1360.958496	-388.134644	335.034973	1445.962280	-193.064667	445.370605	1330.611206	-193.087326	228.166168	1056.018066	88.199272	254.526779	1053.386353	-474.910156	240.138527	808.386230	117.752762	288.533127	796.587830	-479.528198	403.158997	906.498474	-68.125656	406.846741	899.640930	-319.332214	205.834763	950.692810	-194.873428	216.602280	1212.768555	-196.081680	504.883789	1107.972290	-185.147263	386.033936	554.552490	32.667522	401.102905	471.321442	-6.708118	316.500366	345.627014	61.851780	192.960281	155.837357	-49.730869	147.356003	169.752670	-106.393150	295.397888	75.908173	-68.916283	343.313629	552.434570	-405.465363	353.377930	461.103485	-357.185852	336.950562	237.672272	-373.566315	310.521362	54.710186	-281.308197	257.041138	47.116146	-238.159988	443.717163	38.780167	-242.459213
223	2.22000000	364.350494	1370.810303	-8.400641	370.767303	1361.929443	-387.838043	344.946075	1446.424805	-192.564026	455.173187	1331.058838	-192.740921	237.263626	1056.152710	87.915245	265.535828	1054.192505	-475.493408	248.772438	808.492798	117.220654	300.261749	797.460083	-480.259201	413.746674	907.040710	-68.637154	415.806610	899.779175	-319.704468	215.576675	951.085693	-194.176682	226.404343	1213.159546	-195.832474	514.714966	1108.465088	-185.708939	402.302795	556.100769	32.490013	417.695923	472.601288	-7.621346	338.284821	343.011597	61.542664	223.053528	147.163452	-49.208935	176.867752	158.188873	-105.980141	329.502014	73.124420	-67.602989	347.917816	552.611633	-405.451202	356.237152	461.007324	-357.067444	337.868561	237.712067	-373.517914	310.447693	54.762295	-281.086121	256.978516	47.147369	-237.736847	443.691345	38.730618	-242.526718
224	2.23000000	374.023224	1370.698730	-7.977155	380.814270	1362.691650	-387.495880	354.829346	1446.688354	-192.021683	464.962891	1331.309937	-192.358109	246.373138	1056.077759	87.672112	276.507751	1054.800659	-476.010071	257.417854	808.386444	116.720066	311.874527	798.114960	-480.916870	424.264160	907.332336	-69.109993	424.743835	899.754272	-320.015137	225.304169	951.286926	-193.433990	236.186783	1213.357056	-195.507782	524.529175	1108.755493	-186.256287	418.174835	557.431885	32.326244	433.772522	473.543060	-8.484221	360.035309	340.058289	61.193066	253.799240	138.386673	-48.773766	207.194748	146.496902	-105.697807	363.946899	70.460732	-66.299263	352.651947	552.711060	-405.439728	359.249969	460.869110	-356.938354	338.888947	237.720413	-373.464355	310.375031	54.824696	-280.857361	256.929230	47.210499	-237.314819	443.669373	38.653694	-242.572510
225	2.24000000	383.715973	1370.383301	-7.514092	390.857880	1363.241943	-387.106506	364.697205	1446.750000	-191.437454	474.752411	1331.359741	-191.938461	255.507858	1055.794678	87.475739	287.451508	1055.212158	-476.463379	266.083710	808.067902	116.255188	323.384674	798.555756	-481.512283	434.718628	907.374939	-69.534958	433.666016	899.565674	-320.262848	235.024841	951.294617	-192.647568	245.959457	1213.360352	-195.106857	534.333862	1108.837524	-186.783310	433.581299	558.507507	32.161034	449.307922	474.126801	-9.300282	381.610199	336.885132	60.798199	285.158569	129.666016	-48.403172	238.291382	134.861618	-105.513802	398.697174	68.033722	-65.011360	357.531219	552.725525	-405.430420	362.438263	460.680054	-356.801910	340.032379	237.689514	-373.407227	310.304871	54.894321	-280.623962	256.893372	47.307308	-236.899673	443.652100	38.561481	-242.606689
226	2.25000000	393.440582	1369.865601	-7.010036	400.910797	1363.580566	-386.667358	374.561432	1446.609375	-190.809967	484.553619	1331.206421	-191.480331	264.680084	1055.306274	87.332306	298.375061	1055.431641	-476.856171	274.779907	807.540039	115.830696	334.805206	798.789246	-482.056366	445.119720	907.174072	-69.902824	442.581299	899.214966	-320.446564	244.746719	951.108948	-191.819305	255.731964	1213.171021	-194.629181	544.136292	1108.707886	-187.282715	448.441040	559.287476	31.980337	464.279022	474.338287	-10.075430	402.851135	333.593933	60.357399	317.081604	121.160530	-48.070732	270.102936	123.466942	-105.386658	433.702301	65.948730	-63.759426	362.567352	552.650940	-405.421112	365.816620	460.433777	-356.660187	341.314148	237.614243	-373.348145	310.238495	54.968533	-280.388611	256.870209	47.435829	-236.495605	443.637909	38.466427	-242.641342
